<?xml version="1.0" standalone="no"?>
<!DOCTYPE svg PUBLIC "-//W3C//DTD SVG 20010904//EN"
 "http://www.w3.org/TR/2001/REC-SVG-20010904/DTD/svg10.dtd">
<svg version="1.0" xmlns="http://www.w3.org/2000/svg"
 width="340.000000pt" height="340.000000pt" viewBox="0 0 340.000000 340.000000"
 preserveAspectRatio="xMidYMid meet">
<metadata>
Created by potrace 1.14, written by Peter Selinger 2001-2017
</metadata>
<g transform="translate(0.000000,340.000000) scale(0.100000,-0.100000)"
fill="#000000" stroke="none">
<path d="M1798 3383 c-25 -16 -56 -63 -41 -63 4 0 17 9 29 21 l22 20 22 -23
c12 -13 29 -38 37 -57 14 -33 13 -35 -11 -58 -14 -12 -28 -23 -32 -23 -4 0
-26 -17 -49 -37 -34 -32 -94 -72 -115 -78 -3 -1 -12 -4 -20 -8 -8 -3 -28 -8
-45 -11 -16 -4 -41 -9 -55 -11 -26 -5 -59 -6 -197 -5 -45 1 -91 -4 -102 -9
-11 -6 -33 -11 -49 -11 -16 0 -46 -7 -66 -15 -20 -8 -36 -13 -36 -10 0 5 -59
-33 -101 -65 -63 -48 -175 -174 -200 -224 -8 -17 -23 -43 -33 -58 -10 -16 -16
-28 -12 -28 3 0 -3 -17 -13 -37 -11 -21 -25 -67 -31 -103 -12 -59 -15 -66 -38
-68 -24 -2 -93 -42 -138 -80 -11 -9 -32 -37 -46 -62 -44 -76 -27 -184 34 -213
43 -21 121 -13 173 18 l45 26 67 -68 c74 -74 151 -121 209 -129 21 -2 42 -8
48 -13 6 -5 30 -11 54 -15 24 -3 46 -7 50 -10 11 -6 101 -18 157 -21 58 -2
153 -24 275 -61 47 -15 90 -28 97 -30 17 -4 62 -78 68 -111 4 -24 0 -32 -26
-47 -41 -24 -32 -66 18 -82 2 0 -8 -29 -22 -65 -14 -35 -42 -81 -64 -104 -33
-35 -101 -136 -101 -150 0 -3 -7 -21 -15 -41 -8 -19 -13 -36 -12 -38 1 -1 -3
-9 -10 -17 -6 -8 -14 -31 -17 -53 -4 -21 -9 -43 -12 -48 -18 -28 2 -276 24
-313 4 -5 7 -16 9 -24 4 -26 59 -74 118 -102 33 -16 65 -29 72 -29 19 0 23
-15 12 -53 -11 -42 -21 -46 -114 -45 -38 0 -86 -3 -105 -7 -19 -5 -69 -8 -111
-9 -61 -1 -81 -5 -98 -20 -12 -11 -36 -20 -54 -20 -52 -2 -122 -53 -151 -111
-34 -66 -34 -106 2 -146 25 -28 36 -32 93 -36 134 -8 186 -13 254 -27 39 -7
108 -12 155 -10 47 1 114 3 150 3 36 0 72 1 80 1 8 0 94 2 190 3 149 2 179 5
202 21 15 9 44 19 65 21 85 7 139 18 156 33 33 30 18 89 -42 154 -25 28 -45
38 -108 53 -43 10 -92 19 -110 19 -17 1 -35 4 -39 8 -4 4 -8 39 -9 78 -1 39
-7 76 -14 83 -16 16 -14 27 6 27 9 0 24 7 33 15 15 13 23 10 81 -31 104 -73
159 -93 248 -89 54 2 81 9 146 35 86 36 105 45 105 51 0 15 -19 19 -43 10 -21
-8 -29 -5 -53 21 -16 17 -44 37 -62 44 -50 22 -259 74 -302 76 -33 1 -38 4
-34 22 8 36 12 180 5 191 -3 6 -6 12 -6 15 -4 26 -37 120 -45 125 -6 3 -10 16
-10 29 0 13 -9 31 -20 41 -11 10 -18 20 -16 23 5 4 -46 105 -63 126 -6 6 -11
23 -13 38 -2 14 -8 32 -14 39 -21 28 -50 164 -46 219 1 14 7 35 13 47 9 17 9
26 1 36 -9 11 -9 25 2 60 8 26 12 47 9 47 -2 0 11 21 29 46 32 45 131 124 155
124 7 0 22 -13 34 -30 36 -47 91 -81 145 -86 27 -3 54 -7 61 -9 6 -2 14 -1 17
3 4 3 16 7 28 9 55 9 171 75 223 128 55 57 124 165 146 232 7 21 16 43 20 48
5 9 12 40 38 181 4 22 4 50 0 62 -5 12 -6 39 -3 60 3 22 -2 59 -13 92 -11 30
-18 71 -18 90 1 19 -5 45 -13 58 -9 13 -16 48 -17 77 -2 37 -9 62 -23 80 -11
14 -24 40 -27 57 -6 27 -55 102 -88 135 -47 46 -99 93 -103 93 -19 0 -113 52
-134 74 -13 15 -56 42 -95 60 -109 52 -123 56 -147 47 -13 -4 -35 -5 -50 -1
-14 5 -28 6 -31 4 -2 -2 -32 -6 -67 -9 -35 -2 -68 -9 -74 -15 -5 -5 -17 -10
-25 -10 -8 0 -29 -11 -47 -25 -36 -27 -56 -32 -53 -12 3 27 -2 39 -27 62 -31
29 -49 31 -86 8z"/>
</g>
</svg>
